<?xml version='1.0' encoding='utf-8'?>
<svg xmlns="http://www.w3.org/2000/svg" version="1.1" id="Layer_1" x="0px" y="0px" viewBox="0 0 2560 655.917" enable-background="new 0 0 2560 655.917"> <path d="M943.333,47.73c0.467,27.88,1.48,55.733,2.453,83.587c1.507,0.04,3.04,0.08,4.573,0.133c2.76,9.84,5.52,19.68,8.333,29.507 c2.76,1.267,5.533,2.533,8.307,3.813c0.76,2.787,1.533,5.56,2.32,8.347c12.581,9.815,8.48-28.405,12.107,213.68 c14.587,0.52,29.267-0.027,43.8,1.093c0.173,8.227-0.52,16.44-0.6,24.667c13.96,2.57,11.44,0.511,20.68,10.04 c3.32,3.347,3.173,8.467,4.36,12.76c1.467,0.947,2.933,1.893,4.427,2.84c0.067,3.133,0.107,6.28,0.187,9.427 c1.44,1.12,2.88,2.24,4.347,3.373c0.12,5.373,0.133,10.76,0.147,16.147c17.417,4.269,11.994,4.03,27.24,2.227 c0.44,19.413,1.067,38.813,1.427,58.227c1.76,1.56,3.533,3.12,5.32,4.68c0.093-16.453-0.08-32.907,0.093-49.36 c2.173-0.427,4.4-0.84,6.6-1.24c1.4-4.347,2.693-8.72,3.987-13.093c2.533,0.8,5.067,1.627,7.613,2.44 c0.2,4.467,0.427,8.933,0.627,13.413c3.56,0.307,7.107,0.6,10.68,0.907c-0.013,14.64-0.027,29.293,0,43.933 c3.587-0.787,7.173-1.573,10.76-2.4c1.653-4.347,2.947-8.867,5.16-12.987c6.653-4.507,14.867-3.133,21.96-0.56 c-0.173-11.92-0.613-23.827-0.64-35.747c2.733-0.947,5.48-1.893,8.227-2.853c-0.253-3.053-0.493-6.107-0.72-9.147 c1.32-0.187,3.947-0.56,5.267-0.747c0.2-32.787,0.547-65.587,0.653-98.373c-0.667-8.92,5.36-16.733,3.973-25.747 c3.053-1.2,6.133-2.413,9.013-4.053c5.573-3.787,12.64-1.72,18.933-2.133c1.013,14.627,3.427,29.32,0.787,43.933 c10.6,0.24,21.2,0.493,31.813,0.747c0.24-28.76,0.56-57.52,0.76-86.28c12.903-4.345,6.69-3.133,69.627-1.667 c0,58.36-0.467,116.733-0.64,175.107c27.869-6.29,19.672-1.634,28.84-11.52c-0.613-27.987-1.027-55.987-1.547-83.973 c54.459-9.213-11.761-1.097,96.187-4.533c-0.2,24.253-0.507,48.493-0.733,72.747c7.96-1.84,15.987-4.76,24.28-3.093 c3.52,3.613,7.12,7.173,10.653,10.8c-0.027,2.48-0.04,4.973-0.04,7.467c1.32,0.187,3.947,0.547,5.267,0.733 c-0.2-10.16-0.587-20.32-0.667-30.493c0.92-0.307,2.76-0.92,3.667-1.227c-0.24-3.187-0.48-6.373-0.68-9.547 c4.813-0.36,9.64,0.147,14.373,1.067c-0.013,4.307,0,8.613,0.013,12.92c4.013,0.747,8.026,1.507,12.067,2.267 c0.04-13.413-0.053-26.813,0.053-40.227c2.707-0.947,5.427-1.893,8.16-2.827c0.32-2.32,0.64-4.627,0.96-6.947 c1.507-0.053,3.013-0.107,4.56-0.16c0.187-6.013,0.44-12.027,0.747-18.04c13.614-0.493,27.24-1.027,40.867-1.533 c-0.48,8.08-0.987,16.16-1.493,24.24c8.6-0.08,17.413,1.88,25.84-0.547c6.147-1.587,12.547-0.787,18.827-0.907 c-0.173,5.187-0.587,10.36-0.573,15.56c-0.093,7.68,4.8,14.467,3.733,22.267c6.027,0.787,12.053,1.547,18.107,2.293 c-0.227-26.773-0.587-53.56-0.707-80.333c17.973-4.728-0.602-4.523,96.947-0.72c0.52,7.893,0.8,15.813,1.573,23.707 c2.48-7.587,4.027-15.533,8.427-22.333c3.013-10.307,3.56-21.213,5.893-31.707c0.12,9.027,2.12,17.88,2.373,26.893 c0.253,5.653,3.773,10.4,5.84,15.493c2.907,5.64,4.44,12.227,9.173,16.747c3.027,16.72,1.48,33.827,2.333,50.733 c2.773,0.267,5.547,0.533,8.36,0.813c-0.04,5.56-0.027,11.133,0.133,16.693c18.147-3,37.227-6.88,55.187-0.773 c-0.267,7.293-0.507,14.587-0.747,21.893c1.44-0.467,2.906-0.92,4.386-1.36c0.067-2.427,0.067-4.867,0.427-7.28 c1.387-2.56,3.72-4.427,5.72-6.52c2.267,1.52,4.56,3.053,6.867,4.573c0.733-60.029,0.042-57.896,2.507-60.36 c6.667-7.973,13.533-15.787,20.253-23.72c20.906-1.285,32.941,5.343,37.907-17.427c5.787-0.307,11.587-0.56,17.387-0.8 c0.267,8.947-0.973,19.427,5.187,26.773c0.56,17.56,0.627,35.133,0.84,52.707c18.2,0.48,36.4,0.573,54.613,0.84 c0.24-5.8,0.493-11.587,0.787-17.387c6.093-0.573,12.427-1.293,17.413-5.24c-0.267-2.067-0.493-4.12-0.693-6.187 c4.6-1.653,9.027-4.013,13.88-4.92c6.093,1.547,12.187,3.36,18.013,5.76c1.853,2.213,1.92,5.533,2.907,8.227 c3.76,0.04,7.533,0.067,11.333,0.08c1.027,10.347,2.027,20.693,3.053,31.053c7.293-0.227,14.6-0.493,21.92-0.747 c1-1.253,2.027-2.507,3.08-3.747c5.787,0,11.587,0,17.387-0.027c2.027,2.507,4.067,5.027,6.133,7.533 c1.227-3.28,2.493-6.547,3.747-9.813c11.067-0.8,22.147-1.52,33.227-2.253c2.1,8.829,0.705,6.645,8.427,13.627 c0.053-22.987-0.013-45.987,0.027-68.973c15.613-3.027,31.36-5.293,47.093-7.653c1.187-3.507,2.4-6.987,3.627-10.48 c21.601-2.985,11.252-8.435,55.64,2.387c2.6,4.72,5.32,9.387,7.96,14.093c7.614-0.08,15.24-0.413,22.867-0.64 c0.52,18.933,0.973,37.88,1.573,56.813c3.013,0.533,6.04,1.08,9.093,1.627c0.933,54.56,1.933,109.107,3.053,163.667 c17.12,3.693,34.253,7.453,51.347,11.333c4.653-5.56,8.32-12,13.626-17c9.213-2.333,18.894-2.613,28.28-4.24 c12.227-2.253,24.68-1.28,37.027-1.467c10.217,27.05,6.594,8.405,7.6,38.6c22.987,1,45.96,2.04,68.947,3.027 c2.507-4.867,5.053-9.707,7.72-14.493c62.69-10.18,43.165-9.706,64.267-1.587v47.253H0v-82.253c6-0.4,11.987-0.8,17.987-1.173 c0.653-1.04,1.307-2.067,1.947-3.107c2.693,0.013,5.387,0.04,8.08,0.053c1.013-1.267,2.04-2.52,3.053-3.773 c1.013,1.733,2.027,3.48,3.04,5.213c0.507-4.307,1.013-8.6,1.52-12.893c4.48-1.4,9.013-2.627,13.587-3.733 c0.507-1.733,1.013-3.453,1.52-5.173c2.04-0.333,4.093-0.653,6.16-0.96c0.653-1.813,1.32-3.6,1.987-5.4 c0.84-0.093,2.533-0.28,3.373-0.373c1.627-14.373,3.413-28.72,5.2-43.067c5.24-3.987,9.747-9.307,16.653-10.307 c1.187-12.88,1.467-25.853,3.267-38.667c-0.427,13.147-0.187,26.293-0.213,39.44c1.52-1.72,3.04-3.413,4.56-5.12 c0.48,12.6,1,25.2,1.48,37.813c4.68-2.693,9.667-5.147,15.227-4.813c0.973-2.627,1.947-5.267,2.92-7.893 c4.56-0.213,8.8-1.76,12.88-3.667c8.307-0.773,16.693-0.027,25.027-0.293c0.28,4.013,0.547,8.04,0.813,12.067 c0.907-0.16,2.707-0.48,3.6-0.64c0.067,0.72,0.213,2.16,0.293,2.88c2.24-1.387,4.507-2.747,6.76-4.107 c1.68,1.773,3.413,3.533,5.093,5.333c-0.44,1.64-0.88,3.293-1.333,4.947c4.533-0.267,9.067-0.533,13.6-0.787 c-0.493,7.333-1,14.653-1.48,21.987c1.12-0.187,3.387-0.56,4.52-0.747c0.493-2.213,0.973-4.427,1.467-6.64 c0.8-0.28,2.373-0.853,3.173-1.133c1.493-3,2.987-6,4.507-8.973c10.88-0.027,21.773,0.093,32.653-0.08 c2.427-5.293,4.947-10.533,7.48-15.76c1.787,0.013,3.587,0.04,5.373,0.067c4.76,8.307,4.053,17.973,4.467,27.173 c4.04-3.12,8.2-6.667,13.64-6.373c2.667-50.519,2.394-72.373,8.693-78.973c9.964-12.761,2.964,4.054,10.293-53.693 c-0.718,31.389-2.528,27.646,4.413,37.707c-0.2,1.933-0.4,3.88-0.6,5.84c2.24-0.227,4.493-0.44,6.747-0.653 c0.08,9.787,0.12,19.667,1.867,29.347c3.253,16.507,2.787,33.453,4.24,50.173c2.76,0.493,5.52,1.013,8.293,1.52 c0.253,3.773,0.507,7.547,0.773,11.32c2.24-0.24,4.493-0.48,6.76-0.707c2.253-6.733,5.04-13.36,5.76-20.493 c7.2,0.28,14.4,0.507,21.6,0.76c-0.52,2.427-1.027,4.853-1.533,7.307c0.56,0.507,1.693,1.52,2.253,2.04 c-0.24,5.973-0.493,11.947-0.72,17.92c3.773-0.493,7.56-0.987,11.347-1.467c0.72,2.48,1.427,4.973,2.147,7.467 c3.587,0.053,7.16,0.08,10.747,0.12c0.253-8.64,0.453-17.293,0.8-25.933c1.453-0.907,2.92-1.813,4.387-2.72 c0.573-4.107,1.107-8.227,1.653-12.333c14.653-0.987,29.293-1.973,43.933-3.013c0.747-3.52,1.48-7.053,2.227-10.573 c4.213-0.453,8.773,0.133,12.76-1.293c0.613-3.333,0.707-6.72,0.933-10.093c3.267,0.747,6.533,1.507,9.813,2.253 c2.28-4.36,4.867-8.653,5.733-13.573c0.827-4.573,5.147-7.227,7.893-10.613c15.187,0.48,30.387,0.84,45.56,1.587 c2.773,6.36,7.147,12.253,6.853,19.533c2.24,0.267,4.493,0.547,6.733,0.827c1.027,5.533,2.04,11.08,3.053,16.627 c17.413,1.027,34.84,2.04,52.267,3.053c0.027,9.093,0,18.2,0.013,27.293c4.04,0.24,8.093,0.493,12.147,0.733 c0-4.533,0-9.067,0-13.587c3.413-0.267,6.827-0.533,10.267-0.773c-0.24-0.787-0.72-2.347-0.973-3.133 c2.947,0.04,5.867,0.053,8.827,0.093c-0.747-3.04-1.48-6.067-2.227-9.093c9.56,0,19.107-0.013,28.667,0 c2.133,2.653,4.587,5.04,7.573,6.747c1.467-12.28,1.48-24.76,4.56-36.8c0.973-0.293,2.907-0.867,3.88-1.16 c-0.373-1.053-1.107-3.16-1.48-4.213c7.373-4.4,10.24-12.707,14.267-19.8c8.627-0.12,17.253-0.027,25.88-0.08 c0.56-22.013,0.92-44.013,1.627-66.013c21.187-1.68,42.347-3.52,63.533-5.253c0.28,10.613,0.52,21.213,0.8,31.827 c2.507-0.027,5.013-0.027,7.547-0.027c18.676-25.973-4.124-5.073,37.867-38.627c9.8,6.467,19.547,13.013,29.32,19.52 c-1.693,9.147,5.307,16.4,7.173,24.92c2.264-5.562,4.194-14.781,21.653-18.32c22.385,1.501,24.73,7.423,31.493,20.053 c2.707,0.28,5.413,0.573,8.133,0.853c1.747,7.68,2.8,15.507,3.08,23.387c1.133,0.027,3.413,0.08,4.56,0.093 c0.053,5.48-0.4,10.987,0.293,16.44c4.08,1.84,8.933,0.147,13.307,0.2c3.013-95.453,6.08-190.907,9.107-286.36 c3.52,0.2,7.04,0.413,10.56,0.627c-0.24-2.773-0.48-5.547-0.707-8.32c4.347-2.52,8.68-5.08,12.973-7.72 C948.842,93.703,939.233,168.293,943.333,47.73z"/> </svg>